<svg xmlns="http://www.w3.org/2000/svg" width="42" height="42" viewBox="0 0 42 42">
  <g id="package" transform="translate(-3 -3)">
    <path id="Path_13215" data-name="Path 13215" d="M28.01,43H8a5.006,5.006,0,0,1-5-5V8A5.006,5.006,0,0,1,8,3H36a5.006,5.006,0,0,1,5,5V26.01a1,1,0,0,1-2,0V8a3,3,0,0,0-3-3H8A3,3,0,0,0,5,8V38a3,3,0,0,0,3,3H28.01a1,1,0,0,1,0,2Z"/>
    <path id="Path_13216" data-name="Path 13216" d="M22,19a2.968,2.968,0,0,1-2.057-1.287c-.5-.547-1.024-1.113-1.547-1.113-.149,0-.3.051-.7.678A2,2,0,0,1,14,16.226V4a1,1,0,0,1,1-1H29a1,1,0,0,1,1,1V16.537a2,2,0,0,1-3.594,1.208L26.3,17.6c-.47-.624-.778-1-1.107-1-.428,0-.767.41-1.236,1.035A2.6,2.6,0,0,1,22,19ZM22.1,17.016ZM18.4,14.6a4.237,4.237,0,0,1,3.019,1.759,7.637,7.637,0,0,0,.555.564c.118-.129.272-.335.385-.486A3.615,3.615,0,0,1,25.192,14.6a3.5,3.5,0,0,1,2.7,1.8l.1.137V5H16V16.242A2.834,2.834,0,0,1,18.4,14.6Z"/>
    <path id="Path_13217" data-name="Path 13217" d="M34,45A11,11,0,1,1,45,34,11,11,0,0,1,34,45Zm0-20a9,9,0,1,0,9,9A9,9,0,0,0,34,25Z"/>
    <path id="Path_13218" data-name="Path 13218" d="M34,35a3.25,3.25,0,1,1,3.25-3.25,1,1,0,0,1-2,0A1.25,1.25,0,1,0,34,33a1,1,0,0,1,0,2Z"/>
    <path id="Path_13219" data-name="Path 13219" d="M34,39.5a3.254,3.254,0,0,1-3.25-3.25,1,1,0,0,1,2,0A1.25,1.25,0,1,0,34,35a1,1,0,0,1,0-2,3.25,3.25,0,1,1,0,6.5Z"/>
    <path id="Path_13220" data-name="Path 13220" d="M34,30.5a1,1,0,0,1-1-1V28a1,1,0,0,1,2,0v1.5A1,1,0,0,1,34,30.5Z"/>
    <path id="Path_13221" data-name="Path 13221" d="M34,41a1,1,0,0,1-1-1V38.5a1,1,0,0,1,2,0V40A1,1,0,0,1,34,41Z"/>
  </g>
</svg>
