<svg xmlns="http://www.w3.org/2000/svg" width="47.851" height="45.507" viewBox="0 0 47.851 45.507">
  <g id="XMLID_3_" transform="translate(-9 -21.551)">
    <path id="XMLID_27_" d="M355.612,93.483H360.3a3.749,3.749,0,0,1,3.749,3.749h0a3.749,3.749,0,0,1-3.749,3.749h-3.753" transform="translate(-313.351 -64.311)" fill="none" stroke="#000" stroke-linecap="round" stroke-linejoin="round" stroke-miterlimit="10" stroke-width="2"/>
    <path id="XMLID_28_" d="M357.486,73.4l-1.874,1.875,1.874,1.874" transform="translate(-313.351 -46.103)" fill="none" stroke="#000" stroke-linecap="round" stroke-linejoin="round" stroke-miterlimit="10" stroke-width="2"/>
    <circle id="Ellipse_600" data-name="Ellipse 600" cx="9.372" cy="9.372" r="9.372" transform="translate(37.106 22.551)" fill="none" stroke="#000" stroke-linecap="round" stroke-linejoin="round" stroke-miterlimit="10" stroke-width="2"/>
    <path id="XMLID_38_" d="M46.4,110.295v21.564a3.015,3.015,0,0,1-2.789,3.2H12.789a3.015,3.015,0,0,1-2.789-3.2V101.853a3.015,3.015,0,0,1,2.789-3.2H37.383" transform="translate(0 -68.999)" fill="none" stroke="#000" stroke-linecap="round" stroke-linejoin="round" stroke-miterlimit="10" stroke-width="2"/>
    <path id="XMLID_26_" d="M160.085,98.653v13.122l-5.155-3.749-5.155,3.749V98.653" transform="translate(-126.728 -68.998)" fill="none" stroke="#000" stroke-linecap="round" stroke-linejoin="round" stroke-miterlimit="10" stroke-width="2"/>
    <path id="XMLID_506_" d="M258.09,344.942h-5.5a2.4,2.4,0,0,1-2.4-2.4V336.1a2.4,2.4,0,0,1,2.4-2.4h5.5a2.4,2.4,0,0,1,2.4,2.4v6.44A2.4,2.4,0,0,1,258.09,344.942Z" transform="translate(-217.764 -282.101)" fill="none" stroke="#000" stroke-linecap="round" stroke-linejoin="round" stroke-miterlimit="10" stroke-width="2"/>
    <line id="XMLID_25_" x2="2.812" transform="translate(36.168 55.343)" fill="none" stroke="#000" stroke-linecap="round" stroke-linejoin="round" stroke-miterlimit="10" stroke-width="2"/>
    <line id="XMLID_24_" x2="2.812" transform="translate(36.168 59.092)" fill="none" stroke="#000" stroke-linecap="round" stroke-linejoin="round" stroke-miterlimit="10" stroke-width="2"/>
    <path id="XMLID_4_" d="M56.865,417.77H51.241a1.874,1.874,0,0,1-1.874-1.875h0a1.874,1.874,0,0,1,1.874-1.874h5.624a1.874,1.874,0,0,1,1.874,1.874h0A1.875,1.875,0,0,1,56.865,417.77Z" transform="translate(-35.692 -354.929)" fill="none" stroke="#000" stroke-linecap="round" stroke-linejoin="round" stroke-miterlimit="10" stroke-width="2"/>
  </g>
</svg>
