<svg xmlns="http://www.w3.org/2000/svg" width="54.592" height="34.236" viewBox="0 0 54.592 34.236">
  <g id="free-shipping" transform="translate(-1 -13.305)">
    <path id="Path_13208" data-name="Path 13208" d="M54.955,30.1,50.8,24.066A3.605,3.605,0,0,0,47.825,22.5H39.38V16.92a3.625,3.625,0,0,0-3.623-3.615H4.615A3.618,3.618,0,0,0,1,16.92V40.345a3.625,3.625,0,0,0,3.615,3.623h5.823a4.41,4.41,0,0,0,8.66,0H42.325a4.41,4.41,0,0,0,8.66,0h.984a3.632,3.632,0,0,0,3.623-3.623V32.156a3.623,3.623,0,0,0-.637-2.051ZM14.772,45.887a2.754,2.754,0,1,1,2.754-2.746A2.759,2.759,0,0,1,14.772,45.887Zm22.954-3.573H19.106c0-.017-.008-.017-.008-.033a.083.083,0,0,1-.008-.025v-.008a4.409,4.409,0,0,0-8.652.066H4.615a1.966,1.966,0,0,1-1.96-1.969V16.92a1.959,1.959,0,0,1,1.96-1.96H35.757a1.966,1.966,0,0,1,1.969,1.96Zm8.933,3.573a2.754,2.754,0,1,1,2.754-2.746A2.759,2.759,0,0,1,46.659,45.887Zm7.279-5.542a1.973,1.973,0,0,1-1.969,1.969h-.976c-.008-.025-.008-.033-.017-.058v-.008a4.412,4.412,0,0,0-8.644,0c-.008.025-.008.041-.017.066H39.38V24.157h8.445A1.955,1.955,0,0,1,49.438,25l4.152,6.047a1.955,1.955,0,0,1,.347,1.108Z" transform="translate(0 0)"/>
    <path id="Path_13209" data-name="Path 13209" d="M59.449,35.1a1.477,1.477,0,0,0-.09-1.529l-2.711-3.948a1.481,1.481,0,0,0-1.222-.644H51.439a1.484,1.484,0,0,0-1.482,1.482v3.949a1.484,1.484,0,0,0,1.482,1.482h6.7a1.479,1.479,0,0,0,1.312-.792Zm-7.838-.862V30.632h3.723l2.476,3.605Z" transform="translate(-8.462 -2.709)"/>
    <path id="Path_13210" data-name="Path 13210" d="M39.871,22.364a.827.827,0,0,0,0-1.654H35.482a.827.827,0,0,0-.827.827V29.88a.827.827,0,0,0,.827.827h4.389a.827.827,0,0,0,0-1.654H36.309V26.536h3.561a.827.827,0,0,0,0-1.654H36.309V22.364h3.561Z" transform="translate(-5.817 -1.28)"/>
    <path id="Path_13211" data-name="Path 13211" d="M29.768,22.364a.827.827,0,0,0,0-1.654H25.38a.827.827,0,0,0-.827.827V29.88a.827.827,0,0,0,.827.827h4.389a.827.827,0,0,0,0-1.654H26.207V26.536h3.561a.827.827,0,0,0,0-1.654H26.207V22.364h3.561Z" transform="translate(-4.071 -1.28)"/>
    <path id="Path_13212" data-name="Path 13212" d="M11.647,22.364a.827.827,0,1,0,0-1.654H7.259a.827.827,0,0,0-.827.827V29.88a.827.827,0,1,0,1.654,0V26.536h3.561a.827.827,0,1,0,0-1.654H8.086V22.364h3.561Z" transform="translate(-0.939 -1.28)"/>
    <path id="Path_13213" data-name="Path 13213" d="M21.535,23.623a2.917,2.917,0,0,0-2.913-2.913h-2.3a.827.827,0,0,0-.827.827V29.88a.827.827,0,0,0,1.654,0V26.536h.941l1.656,3.684a.827.827,0,1,0,1.509-.679l-1.463-3.253a2.915,2.915,0,0,0,1.745-2.665Zm-2.913,1.259H17.146V22.364h1.476a1.259,1.259,0,0,1,0,2.518Z" transform="translate(-2.505 -1.28)"/>
    <path id="Path_13214" data-name="Path 13214" d="M7.259,38.282H34.136a.827.827,0,1,0,0-1.654H7.259a.827.827,0,0,0,0,1.654Z" transform="translate(-0.939 -4.031)"/>
  </g>
</svg>
