<svg xmlns="http://www.w3.org/2000/svg" width="27.541" height="27.541" viewBox="0 0 27.541 27.541">
  <path id="Icon_awesome-whatsapp" data-name="Icon awesome-whatsapp" d="M23.416,6.252A13.652,13.652,0,0,0,1.936,22.721L0,29.791l7.236-1.9a13.606,13.606,0,0,0,6.523,1.66h.006A13.779,13.779,0,0,0,27.541,15.9a13.7,13.7,0,0,0-4.125-9.652Zm-9.652,21a11.323,11.323,0,0,1-5.779-1.58l-.412-.246L3.283,26.551l1.143-4.186-.27-.43A11.365,11.365,0,1,1,25.236,15.9,11.47,11.47,0,0,1,13.764,27.252Zm6.221-8.5c-.338-.172-2.016-1-2.33-1.107s-.541-.172-.768.172-.879,1.107-1.082,1.34-.4.258-.738.086a9.282,9.282,0,0,1-4.641-4.057c-.35-.6.35-.559,1-1.863a.632.632,0,0,0-.031-.6c-.086-.172-.768-1.85-1.051-2.533-.277-.664-.559-.572-.768-.584S9.154,9.6,8.926,9.6a1.263,1.263,0,0,0-.91.424,3.832,3.832,0,0,0-1.193,2.846A6.681,6.681,0,0,0,8.213,16.4a15.238,15.238,0,0,0,5.828,5.152c2.164.934,3.012,1.014,4.094.855a3.493,3.493,0,0,0,2.3-1.623,2.852,2.852,0,0,0,.2-1.623C20.551,19.008,20.324,18.922,19.986,18.756Z" transform="translate(0 -2.25)" fill="#fff"/>
</svg>
