<svg xmlns="http://www.w3.org/2000/svg" xmlns:xlink="http://www.w3.org/1999/xlink" width="48.312" height="48.312" viewBox="0 0 48.312 48.312">
  <defs>
    <clipPath id="clip-path">
      <path id="path441" d="M0-682.665H48.312v48.312H0Z" transform="translate(0 682.665)"/>
    </clipPath>
  </defs>
  <g id="g435" transform="translate(0 682.665)">
    <g id="g437" transform="translate(0 -682.665)">
      <g id="g439" clip-path="url(#clip-path)">
        <g id="g445" transform="translate(22.741 36.895)">
          <path id="path447" d="M-18.585-11.508A1.415,1.415,0,0,1-20-12.923v-5.662A1.415,1.415,0,0,1-18.585-20a1.415,1.415,0,0,1,1.415,1.415v5.662A1.415,1.415,0,0,1-18.585-11.508Z" transform="translate(20 20)"/>
        </g>
        <g id="g449" transform="translate(11.417 36.894)">
          <path id="path451" d="M-58.59-11.511a1.409,1.409,0,0,1-.632-.15,1.415,1.415,0,0,1-.633-1.9l2.831-5.662a1.415,1.415,0,0,1,1.9-.633,1.415,1.415,0,0,1,.633,1.9l-2.831,5.662A1.415,1.415,0,0,1-58.59-11.511Z" transform="translate(60.004 20.004)"/>
        </g>
        <g id="g453" transform="translate(31.233 36.894)">
          <path id="path455" d="M-15.757-11.511a1.415,1.415,0,0,1-1.267-.783l-2.831-5.662a1.415,1.415,0,0,1,.633-1.9,1.415,1.415,0,0,1,1.9.633l2.831,5.662a1.415,1.415,0,0,1-.633,1.9A1.41,1.41,0,0,1-15.757-11.511Z" transform="translate(20.004 20.004)"/>
        </g>
        <g id="g457" transform="translate(0 2.925)">
          <path id="path459" d="M-213.1,11.139h-45.481a1.415,1.415,0,0,1-1.08-.5,1.415,1.415,0,0,1-.316-1.148c1.924-11.546,8.709-18.167,18.615-18.167h26.847v-8.492H-241.6a1.415,1.415,0,0,1-1.415-1.415A1.415,1.415,0,0,1-241.6-20h28.5a1.415,1.415,0,0,1,1.415,1.415V9.723A1.415,1.415,0,0,1-213.1,11.139Zm-43.765-2.831h42.35V-5.846h-26.847C-249.277-5.846-254.86-.714-256.868,8.308Z" transform="translate(260 20)"/>
        </g>
      </g>
    </g>
  </g>
</svg>
