<svg xmlns="http://www.w3.org/2000/svg" width="53.745" height="32.603" viewBox="0 0 53.745 32.603">
  <g id="machine-wash" transform="translate(0.002 -100.7)">
    <path id="Path_13199" data-name="Path 13199" d="M32.742,133.3H7.521a2.118,2.118,0,0,1-2.084-1.738L.016,101.939a1.05,1.05,0,0,1,2.065-.378L7.5,131.188l25.24.016a1.05,1.05,0,1,1,0,2.1Z" transform="translate(0 0)" fill="#2fa903"/>
    <path id="Path_13200" data-name="Path 13200" d="M398.017,133.3H394.1a1.05,1.05,0,1,1,0-2.1h3.914l5.44-29.643a1.05,1.05,0,1,1,2.065.378L400.1,131.566A2.118,2.118,0,0,1,398.017,133.3Z" transform="translate(-351.797)" fill="#2fa903"/>
    <path id="Path_13201" data-name="Path 13201" d="M54.057,131.353a8.167,8.167,0,0,1-4.615-1.316,6.664,6.664,0,0,0-7.139,0,8.753,8.753,0,0,1-9.231,0A6.138,6.138,0,0,0,29.5,129a6.138,6.138,0,0,0-3.569,1.036,8.166,8.166,0,0,1-4.615,1.316,8.166,8.166,0,0,1-4.615-1.316A6.138,6.138,0,0,0,13.134,129a1.05,1.05,0,0,1,0-2.1,8.166,8.166,0,0,1,4.615,1.316,6.138,6.138,0,0,0,3.569,1.036,6.138,6.138,0,0,0,3.569-1.036A8.166,8.166,0,0,1,29.5,126.9a8.166,8.166,0,0,1,4.615,1.316,6.664,6.664,0,0,0,7.138,0,8.754,8.754,0,0,1,9.231,0,6.664,6.664,0,0,0,7.139,0,8.167,8.167,0,0,1,4.616-1.316,1.05,1.05,0,0,1,0,2.1,6.139,6.139,0,0,0-3.569,1.036A8.167,8.167,0,0,1,54.057,131.353Z" transform="translate(-10.817 -23.45)" fill="#2fa903"/>
    <g id="Group_8239" data-name="Group 8239" transform="translate(12.901 112.22)">
      <path id="Path_13202" data-name="Path 13202" d="M127.244,218.682a1.05,1.05,0,0,1,0-2.1,2.018,2.018,0,1,0-1.98-2.41,1.05,1.05,0,0,1-2.06-.4,4.118,4.118,0,1,1,4.04,4.914Z" transform="translate(-123.156 -210.447)" fill="#2fa903"/>
      <path id="Path_13203" data-name="Path 13203" d="M127.007,277.13a4.133,4.133,0,0,1-4.078-3.544,1.05,1.05,0,0,1,2.079-.29,2.018,2.018,0,1,0,2-2.3,1.05,1.05,0,0,1,0-2.1,4.117,4.117,0,0,1,0,8.235Z" transform="translate(-122.919 -262.76)" fill="#2fa903"/>
    </g>
    <g id="Group_8240" data-name="Group 8240" transform="translate(23.283 112.117)">
      <path id="Path_13204" data-name="Path 13204" d="M226.343,224.036a4.522,4.522,0,0,1-4.517-4.517v-5.544a4.517,4.517,0,1,1,9.033,0v5.544A4.522,4.522,0,0,1,226.343,224.036Zm0-12.478a2.42,2.42,0,0,0-2.417,2.417v5.544a2.417,2.417,0,0,0,4.834,0v-5.544A2.42,2.42,0,0,0,226.343,211.558Z" transform="translate(-221.826 -209.459)" fill="#2fa903"/>
    </g>
    <path id="Ellipse_597" data-name="Ellipse 597" d="M-6.812-10A3.192,3.192,0,0,1-3.624-6.812,3.192,3.192,0,0,1-6.812-3.624,3.192,3.192,0,0,1-10-6.812,3.192,3.192,0,0,1-6.812-10Zm0,4.277A1.09,1.09,0,0,0-5.723-6.812,1.09,1.09,0,0,0-6.812-7.9,1.09,1.09,0,0,0-7.9-6.812,1.09,1.09,0,0,0-6.812-5.723Z" transform="translate(44.493 121.011)" fill="#2fa903"/>
    <path id="Line_148" data-name="Line 148" transform="translate(37.516 132.254)" fill="#2fa903"/>
  </g>
</svg>
